<svg width="44" height="44" fill="none" xmlns="http://www.w3.org/2000/svg"><path d="M25.06 8.46a6.093 6.093 0 00-1.12 1.2.63.63 0 01-.52.27h-.91c-1.938-.001-3.855.4-5.63 1.18V9.9a1.35 1.35 0 10-2.7 0v1.34c-2.37.39-3.88 1.91-3.88 4.03-.007.46.068.916.22 1.35a12.62 12.62 0 00-1.11 2.24 1.156 1.156 0 01-.84-1.22v-.01a1.274 1.274 0 00-1.28-1.27c-.708 0-1.284.572-1.29 1.28a3.8 3.8 0 002.75 3.72 13.192 13.192 0 00-.18 2.02c-.01 2.539.7 5.029 2.05 7.18a13.49 13.49 0 1114.44-22.1z" fill="#A6E5FF"/><path d="M17.57 21.5c-.25.6-.94.98-2.01.98a4.19 4.19 0 01-2.83-1.21 2.062 2.062 0 00-1.21-.6c.207-.734.488-1.444.84-2.12.482.223.989.387 1.51.49l1.85.4c.213.045.423.102.63.17a3.932 3.932 0 00-.06.6 1.279 1.279 0 001.28 1.29z" fill="#A6E5FF"/><path d="M29 17.99a13.49 13.49 0 01-13.49 13.49c-.28 0-.56-.02-.83-.04a10.809 10.809 0 01-3.52-7.8 6.03 6.03 0 003.02 1.16v1.29a1.35 1.35 0 102.7 0v-1.33c2.47-.45 4-1.99 4-4.18a3.616 3.616 0 00-.37-1.65H24a1.293 1.293 0 001.19-1.79 1.378 1.378 0 00-.28-.4.236.236 0 00-.09-.08 1.273 1.273 0 00-.56-.27 1.09 1.09 0 00-.26-.03h-3.86a4.15 4.15 0 00-2.22.68 7.074 7.074 0 00-.73-.18l-1.85-.38a3.557 3.557 0 01-1.19-.42c.81-.857 1.752-1.58 2.79-2.14.367.194.703.44 1 .73.376.38.885.6 1.42.61a1.09 1.09 0 001.13-1.1 2.172 2.172 0 00-.58-1.36 11.704 11.704 0 012.6-.3h.91a3.2 3.2 0 002.61-1.35c.19-.264.411-.502.66-.71A13.418 13.418 0 0129 17.99z" fill="#A6E5FF"/><path fill-rule="evenodd" clip-rule="evenodd" d="M38.12 17.64h1.31A2.582 2.582 0 0142 20.21V30.5a2.582 2.582 0 01-2.57 2.57h-3.56a1.29 1.29 0 00-.86.34 13.471 13.471 0 01-2.01 1.5v3.3a1.293 1.293 0 01-1.29 1.29h-5.14a1.285 1.285 0 01-1.28-1.29v-.64a.64.64 0 00-.65-.64h-2.57a.632.632 0 00-.64.64v.64a1.293 1.293 0 01-1.29 1.29H15a1.293 1.293 0 01-1.29-1.29v-4.19a13.617 13.617 0 01-3.09-3.46 13.41 13.41 0 01-2.05-7.18c.008-.677.068-1.352.18-2.02A3.8 3.8 0 016 17.64a1.291 1.291 0 012.193-.91c.24.238.376.562.377.9v.01c-.051.556.302 1.07.84 1.22a12.62 12.62 0 011.11-2.24 14.131 14.131 0 0111.99-6.69h.91c.207 0 .402-.1.52-.27a6.09 6.09 0 011.12-1.2c2.55-2.12 6.53-2.36 8.58-2.39h.02c.348.01.625.292.63.64v6.12a13.8 13.8 0 013.83 4.81zM35.87 30.5h3.56V20.21h-2.95l-.69-1.46a11.02 11.02 0 00-3.1-3.9l-.98-.77V8.75a9.065 9.065 0 00-5.02 1.69c-.249.208-.47.446-.66.71a3.2 3.2 0 01-2.61 1.35h-.91c-.875.002-1.747.103-2.6.3a11.528 11.528 0 00-2.97 1.12 11.08 11.08 0 00-2.79 2.14 10.713 10.713 0 00-1.79 2.49 10.568 10.568 0 00-1.22 4.84c.002.084.009.167.02.25a10.81 10.81 0 003.52 7.8c.2.197.41.384.63.56l.98.78v4.15h2.63a3.217 3.217 0 013.15-2.57h2.57a3.2 3.2 0 013.15 2.57h2.64v-3.45l1.22-.76c.58-.356 1.125-.765 1.63-1.22a3.887 3.887 0 012.59-1z" fill="#0D4599"/><path d="M31.714 22.786a1.286 1.286 0 10.002-2.572 1.286 1.286 0 00-.002 2.572zM31.714 20.214zM31.714 22.786zM31.714 22.786zM33 21.5z" fill="#F2A619"/><path d="M25.29 17.64A1.293 1.293 0 0124 18.93h-3.86a.818.818 0 00-.22.02.709.709 0 00-.2.04.681.681 0 00-.24.08.816.816 0 00-.2.12.685.685 0 00-.17.17 1.073 1.073 0 00-.13.21v.01a.052.052 0 00-.02.04c-.03.078-.054.158-.07.24a1.833 1.833 0 00-.03.35 1.293 1.293 0 01-1.29 1.29 1.278 1.278 0 01-1.28-1.29c.005-.201.025-.402.06-.6a3.5 3.5 0 011.57-2.57 4.15 4.15 0 012.22-.68H24c.088 0 .175.01.26.03.206.042.399.135.56.27a1.374 1.374 0 01.37.48c.064.159.098.329.1.5z" fill="#0D4599"/><path d="M17.571 21.5l.004-.001h-.004zM18.96 19.62c0-.016.008-.03.02-.04a1.018 1.018 0 00-.02.04z" fill="#0D4599"/></svg>